# xmcd
#
# Track frame offsets: 
#        150
#        21247
#        45180
#        64390
#        81515
#        96957
#        117937
#        134137
#        160510
#        179070
#
# Disc length: 2665 seconds
#
# Revision: 2
# Processed by: cddbd v1.5.2PL0 Copyright (c) Steve Scherf et al.
# Submitted via: ExactAudioCopy v1.3
#
DISCID=8b0a670a
DTITLE=The Clark Sisters - Miracle
DYEAR=1994
DGENRE=Gospel
TTITLE0=It's Gonna Be Alright
TTITLE1=Miracle
TTITLE2=Simply Yes
TTITLE3=Call Me
TTITLE4=I Don't Know Why
TTITLE5=He's A Real Friend
TTITLE6=Amazing Grace
TTITLE7=Jesus Is The Best Thing
TTITLE8=No Doubt About It
TTITLE9=Work To Do
EXTD=
EXTT0=
EXTT1=
EXTT2=
EXTT3=
EXTT4=
EXTT5=
EXTT6=
EXTT7=
EXTT8=
EXTT9=
PLAYORDER=
